<?xml version="1.0" standalone="no"?>
<!DOCTYPE svg PUBLIC "-//W3C//DTD SVG 1.1//EN" "http://www.w3.org/Graphics/SVG/1.1/DTD/svg11.dtd" >
<!--
2013-9-30: Created.
-->
<svg>
<metadata>
Created by iconfont
</metadata>
<defs>

<font id="iconfont" horiz-adv-x="1024" >
  <font-face
    font-family="iconfont"
    font-weight="500"
    font-stretch="normal"
    units-per-em="1024"
    ascent="896"
    descent="-128"
  />
    <missing-glyph />
    
    <glyph glyph-name="jiesuan1" unicode="&#58999;" d="M384 554.666667h256a42.666667 42.666667 0 0 0 0-85.333334H384a42.666667 42.666667 0 0 0 0 85.333334z m0-170.666667h256a42.666667 42.666667 0 0 0 0-85.333333H384a42.666667 42.666667 0 0 0 0 85.333333z m355.370667-408.405333l211.2 211.2a42.666667 42.666667 0 1 0 60.330666-60.373334l-241.365333-241.365333a42.666667 42.666667 0 0 0-60.330667 0l-120.704 120.704a42.666667 42.666667 0 1 0 60.373334 60.330667l90.453333-90.496z m-270.08-18.261334H128a42.666667 42.666667 0 0 0-42.666667 42.666667V768a42.666667 42.666667 0 0 0 42.666667 42.666667h768a42.666667 42.666667 0 0 0 42.666667-42.666667v-426.666667a42.666667 42.666667 0 0 1 85.333333 0V768a128 128 0 0 1-128 128H128a128 128 0 0 1-128-128v-768a128 128 0 0 1 128-128h341.248a42.666667 42.666667 0 0 1 0 85.333333zM426.666667 640a42.666667 42.666667 0 0 0 42.666666-42.666667v-42.666666H384V597.333333a42.666667 42.666667 0 0 0 42.666667 42.666667z m170.666666 0a42.666667 42.666667 0 0 0 42.666667-42.666667v-42.666666h-85.333333V597.333333a42.666667 42.666667 0 0 0 42.666666 42.666667z m-128-170.666667h85.333334v-256a42.666667 42.666667 0 0 0-85.333334 0v256z"  horiz-adv-x="1024" />

    
    <glyph glyph-name="sousuo" unicode="&#58884;" d="M970.961-28.672000000000025L828.65 113.64099999999996c77.614 83.176 125.533 194.42 125.533 316.904C954.182 687.22 745.402 896 488.727 896 232.076 896 23.273 687.22 23.273 430.545c0-92.276 27.066-181.597 78.312-258.234 10.706-16.081 32.373-20.294 48.408-9.635 16.035 10.706 20.34 32.373 9.635 48.408-43.52 65.14-66.537 141.01-66.537 219.461 0 218.159 177.478 395.637 395.636 395.637 218.159 0 395.637-177.478 395.637-395.637 0-218.158-177.478-395.636-395.637-395.636-78.731 0-154.787 23.133-219.997 66.863-15.988 10.682-37.678 6.47-48.454-9.542-10.728-16.012-6.446-37.702 9.542-48.454 76.754-51.48 166.284-78.685 258.91-78.685 92.16 0 177.92 27.276 250.274 73.658l149.69-149.69A58.019 58.019 0 0 1 929.815-128c14.895 0 29.79 5.702 41.146 17.059 22.738 22.714 22.738 59.532 0 82.269zM247.552 499.305c25.95 100.631 109.359 174.01 212.503 186.926 19.13 2.397 32.698 19.852 30.301 38.982-2.397 19.13-19.99 32.722-38.981 30.301-131.747-16.5-238.267-110.243-271.407-238.801-4.817-18.665 6.4-37.702 25.088-42.496a34.144 34.144 0 0 1 8.727-1.117c15.546 0 29.72 10.45 33.769 26.205z"  horiz-adv-x="1024" />

    
    <glyph glyph-name="zhangdan" unicode="&#58927;" d="M877.696-128H219.392c-80.512 0-146.304 65.792-146.304 146.304v73.088h73.088v-73.088c0-43.904 29.312-73.088 73.088-73.088h658.304c43.904 0 73.088 29.312 73.088 73.088v731.52c0 43.904-29.312 73.088-73.088 73.088H219.392c-43.904 0-73.088-29.312-73.088-73.088v-73.088H73.088v73.088C73.088 830.208 139.008 896 219.392 896h658.304C958.208 896 1024 830.208 1024 749.824v-731.392C1024-62.08 958.208-128 877.696-128zM219.392 493.824c0-21.888-14.592-36.608-36.608-36.608H36.608C14.592 457.216 0 471.808 0 493.824c0 21.888 14.592 36.608 36.608 36.608h146.304c21.888-0.128 36.48-14.72 36.48-36.608zM36.608 310.912h146.304c21.888 0 36.608-14.592 36.608-36.608 0-21.888-14.592-36.608-36.608-36.608H36.608C14.592 237.824 0 252.416 0 274.304c0 22.016 14.592 36.608 36.608 36.608z m0 0M727.68 390.528c19.84 0 35.968 16.128 35.968 35.968 0 19.84-16.128 35.968-35.968 35.968l-88.192 0.128 97.536 116.224c12.8 15.232 10.88 37.888-4.48 50.688-15.232 12.8-38.016 10.752-50.688-4.48L567.168 488.32 452.48 625.024c-12.672 15.104-35.456 17.28-50.688 4.352-15.232-12.8-17.28-35.456-4.48-50.688l97.536-116.096-92.928 0.128c-19.84 0-35.968-16.128-35.968-35.968 0-19.84 16.128-35.968 35.968-36.096l126.976-0.128v-54.656L402.048 336c-19.84 0-35.968-16.128-35.968-35.968 0-19.84 16.128-35.968 35.968-36.096l126.848-0.128-0.128-97.792c0-19.84 16.128-35.968 35.968-35.968 19.84 0 35.968 16.128 35.968 35.968l0.128 97.792 126.848-0.128c19.84 0 35.968 16.128 35.968 35.968 0 19.84-16.128 35.968-35.968 36.096l-126.848 0.128v54.656H727.68z m0 0"  horiz-adv-x="1024" />

    
    <glyph glyph-name="huiyuan" unicode="&#59098;" d="M871.220405 608.165647c0 117.76-92.581647 213.594353-206.396236 213.594353-113.844706 0-206.426353-95.804235-206.426353-213.594353 0-117.820235 92.611765-213.624471 206.426353-213.624471s206.396235 95.804235 206.396236 213.624471zM297.930993 194.379294a417.039059 417.039059 0 0 0 144.564706 141.101177c23.732706 13.854118 47.164235 24.425412 69.150117 32.527058-75.203765 51.591529-124.928 139.956706-124.928 240.158118C386.687699 766.885647 511.465111 896 664.824169 896s278.136471-129.114353 278.136471-287.834353c0-158.72-124.777412-287.864471-278.136471-287.864471-5.722353 0-11.354353 0.210824-16.986353 0.542118a34.635294 34.635294 0 0 0-6.113882-0.542118c-0.843294 0-82.823529-1.084235-166.580706-50.989176a345.178353 345.178353 0 0 1-118.031059-116.856471c-38.249412-62.072471-61.349647-140.197647-68.668235-232.207058-1.536-19.395765-17.227294-34.063059-35.719529-34.063059-0.963765 0-1.957647 0.030118-2.95153 0.12047-19.757176 1.686588-34.454588 19.576471-32.828235 40.056471 8.372706 105.140706 35.629176 195.312941 80.956235 268.047059zM0.127699 13.552941c10.782118 183.175529 96.617412 278.588235 166.701176 326.415059a373.609412 373.609412 0 0 0 69.541647 37.255529 273.468235 273.468235 0 0 0-98.334117 211.154824c0 40.448 8.944941 82.371765 26.443294 118.512941 17.648941 36.412235 42.556235 69.632 73.306353 95.201882A241.754353 241.754353 0 0 0 271.427464 825.825882a251.181176 251.181176 0 0 0 86.226823 30.72c19.576471 3.132235 37.827765-10.691765 40.929882-30.900706 3.041882-20.239059-10.300235-39.243294-29.81647-42.465882-68.065882-11.203765-130.228706-66.168471-149.684706-134.535529-5.421176-18.853647-9.336471-40.568471-9.336471-60.29553 0-49.392941 18.070588-99.870118 52.886589-134.234353 27.467294-27.105882 62.403765-51.2 100.442353-57.795764 19.486118-3.343059 32.647529-22.407529 29.485176-42.586353a37.195294 37.195294 0 0 0-13.552941-23.43153c-13.402353-10.691765-31.322353-8.312471-47.676235-3.433411a34.273882 34.273882 0 0 0-5.12-0.90353c-0.542118-0.060235-59.753412-6.927059-119.958589-48.007529-82.070588-55.988706-127.337412-146.462118-134.565647-268.950589-1.144471-19.696941-16.926118-34.846118-35.749647-34.846117-0.722824 0-1.475765 0-2.198588 0.060235-19.787294 1.204706-34.846118 18.853647-33.641412 39.30353z m901.029647-8.432941c108.845176 144.052706 163.990588 216.064 165.466353 216.064H1144.538052c-136.011294-184.500706-217.027765-294.821647-242.989177-330.932706-26.021647 36.111059-107.128471 146.371765-243.350588 330.872471h78.215529c1.536 0 56.470588-71.981176 164.74353-215.973647z"  horiz-adv-x="1144" />

    
    <glyph glyph-name="jiesuo" unicode="&#58905;" d="M884.9408-128H139.0592c-41.3696 0-75.1616 33.5872-75.1616 75.1616V436.8384c0 41.3696 33.5872 75.1616 75.1616 75.1616h745.8816c41.3696 0 75.1616-33.5872 75.1616-75.1616v-489.6768c0-41.5744-33.792-75.1616-75.1616-75.1616zM139.0592 447.8976c-5.9392 0-11.0592-5.12-11.0592-11.0592v-489.6768c0-5.9392 5.12-11.0592 11.0592-11.0592h745.8816c5.9392 0 11.0592 5.12 11.0592 11.0592V436.8384c0 5.9392-5.12 11.0592-11.0592 11.0592H139.0592zM512 119.6032c-70.656 0-128 57.344-128 128s57.344 128 128 128 128-57.344 128-128c0-70.4512-57.344-128-128-128z m0 192.1024c-35.2256 0-63.8976-28.672-63.8976-64.1024s28.672-63.8976 63.8976-63.8976 63.8976 28.672 63.8976 63.8976-28.672 64.1024-63.8976 64.1024zM516.7104-23.7568h-9.6256c-14.9504 0-27.2384 12.288-27.2384 27.2384v137.6256c0 14.9504 12.288 27.2384 27.2384 27.2384h9.6256c14.9504 0 27.2384-12.288 27.2384-27.2384v-137.6256c0-14.9504-12.288-27.2384-27.2384-27.2384zM224.0512 447.8976c-17.6128 0-31.9488 14.336-31.9488 31.9488v192.1024C192.1024 795.4432 292.4544 896 415.9488 896h192.1024c123.4944 0 224.0512-100.5568 224.0512-224.0512 0-17.6128-14.336-31.9488-31.9488-31.9488s-31.9488 14.336-31.9488 31.9488c0 88.2688-71.68 159.9488-159.9488 159.9488h-192.1024c-88.2688 0-159.9488-71.68-159.9488-159.9488v-192.1024c-0.2048-17.6128-14.5408-31.9488-32.1536-31.9488z"  horiz-adv-x="1024" />

    
    <glyph glyph-name="xiala" unicode="&#58891;" d="M561.873 170.835c-11.262-11.262-26.545-21.72-41.025-18.502-14.479-2.413-28.154 8.849-39.415 18.502L133.129 520.748c-17.697 17.696-17.697 46.655 0 64.352s46.655 17.696 64.351 0l324.173-333.021 324.977 333.02c17.696 17.697 46.655 17.697 64.351 0s17.697-46.655 0-64.351L561.873 170.835z"  horiz-adv-x="1024" />

    
    <glyph glyph-name="chaobiao" unicode="&#58890;" d="M948.251805 115.26034900000002L591.33079 733.415065c-43.647079 75.579349-114.998127 75.579349-158.64623 0L75.762521 115.26034900000002c-43.649126-75.647911-7.939833-137.359414 79.287811-137.359414l713.912639 0C956.191638-22.098041999999964 991.866139 39.61346200000003 948.251805 115.26034900000002L948.251805 115.26034900000002zM462.984656 558.0244749999999c12.828167 13.866822 29.130458 20.800745 49.022507 20.800745 19.900236 0 36.195364-6.864338 49.030693-20.524452 12.750395-13.693884 19.128663-30.820959 19.128663-51.414997 0-17.715477-26.626427-148.003845-35.501562-242.789629l-64.138786 0c-7.791453 94.78476-36.680411 225.073128-36.680411 242.789629C443.847807 527.1677 450.236308 544.226215 462.984656 558.0244749999999L462.984656 558.0244749999999zM560.128137 107.32256299999995c-13.486152-13.140275-29.537733-19.691481-48.119951-19.691481-18.574031 0-34.634822 6.553253-48.121997 19.691481-13.45136 13.104459-20.142759 28.984125-20.142759 47.635927 0 18.548448 6.691399 34.601052 20.142759 48.052412 13.486152 13.45136 29.547966 20.177552 48.121997 20.177552 18.581194 0 34.633798-6.726192 48.119951-20.177552 13.452383-13.45136 20.151969-29.503964 20.151969-48.052412C580.280106 136.30566499999998 573.581544 120.42702199999997 560.128137 107.32256299999995L560.128137 107.32256299999995z"  horiz-adv-x="1024" />

    
    <glyph glyph-name="msnui-error" unicode="&#58882;" d="M832.978 705.365q66.535-66.535 99.282-149.703t32.748-170.495-32.748-170.495-99.282-149.703-149.703-99.801-170.495-33.267-171.014 33.267-150.222 99.801-99.801 149.703-33.267 170.495 33.267 170.495 99.801 149.703 150.222 99.282 171.014 32.748 170.495-32.748 149.703-99.282zM724.86 177.24800000000005q21.832 21.832 19.233 49.901t-24.431 49.901l-109.158 109.158 109.158 109.158q21.832 21.832 24.431 49.901t-19.233 49.901-52.5 21.832-52.5-21.832l-109.158-108.118-106.039 106.039q-21.832 20.792-49.901 23.391t-49.901-18.193q-21.832-21.832-21.832-53.02t21.832-53.02l106.039-106.039-106.039-106.039q-21.832-21.832-21.832-52.5t21.832-52.5 49.901-19.233 49.901 24.431l106.039 106.039 109.158-109.158q21.832-21.832 52.5-21.832t52.5 21.832z"  horiz-adv-x="1024" />

    
    <glyph glyph-name="zhengque" unicode="&#58883;" d="M510.567403 832.147097c-246.304387 0-446.663336-200.358949-446.663336-446.663336 0-246.304387 200.358949-446.663336 446.663336-446.663336 246.304387 0 446.765664 200.358949 446.765664 446.663336C957.230738 631.788148 756.87179 832.147097 510.567403 832.147097L510.567403 832.147097zM787.979614 509.915059L454.593784 176.42690100000004c-7.981613-7.981613-20.977316-7.981613-28.958929 0l-43.694214 43.694214c0 0 0 0 0 0L237.145998 364.915759c-7.981613 7.981613-7.981613 20.977316 0 28.958929l43.694214 43.694214c7.981613 7.981613 20.977316 7.981613 28.958929 0L440.063156 307.40721499999995 715.326471 582.670531c7.981613 7.981613 20.977316 7.981613 29.061257 0L787.979614 538.873988C796.063556 530.892375 796.063556 517.8966720000001 787.979614 509.915059L787.979614 509.915059z"  horiz-adv-x="1024" />

    
    <glyph glyph-name="paixu" unicode="&#59336;" d="M855.552 529.408c0-11.776-4.096-21.504-12.8-30.208-8.192-8.704-18.432-12.8-30.208-12.8H211.456c-11.264 0-22.528 4.608-30.208 12.8-8.192 7.68-12.8 18.944-12.8 30.208 0 11.776 4.096 21.504 12.8 30.208L481.792 860.16c8.704 8.192 18.432 12.8 30.208 12.8 11.776 0 21.504-4.096 30.208-12.8l300.544-300.544c8.704-8.704 12.8-18.944 12.8-30.208z"  horiz-adv-x="1024" />

    
    <glyph glyph-name="add" unicode="&#58881;" d="M960.55751111 322.83306667H573.16693333v-387.39057778c0-22.46948523-27.46270493-61.16693333-61.16693333-61.16693334-33.78744889 0-61.16693333 38.69744811-61.16693333 61.16693334V322.83306667H63.44248889c-22.46948523 0-61.16693333 27.46270493-61.16693334 61.16693333 0 33.78744889 38.61422763 61.16693333 61.16693334 61.16693333h387.39057778V832.55751111c0 22.46948523 27.37948445 61.16693333 61.16693333 61.16693334 33.78744889 0 61.16693333-38.61422763 61.16693333-61.16693334v-387.39057778h387.39057778c22.46948523 0 61.16693333-27.37948445 61.16693334-61.16693333 0-33.78744889-38.69744811-61.16693333-61.16693334-61.16693333z"  horiz-adv-x="1024" />

    
    <glyph glyph-name="dian" unicode="&#58886;" d="M512 384m-128 0a4 4 0 1 0 256 0 4 4 0 1 0-256 0Z"  horiz-adv-x="1024" />

    
    <glyph glyph-name="close" unicode="&#58880;" d="M974.15085753-106.59762322999995a38.37752768 38.37752768 0 0 0-27.12756638 11.24996132L22.930722 828.74490728a38.29774072 38.29774072 0 1 0 54.25513269 54.25513271l924.17235614-924.17235614a38.45731464 38.45731464 0 0 0-27.2073533-65.42530708M50.05828832-106.59762322999995a38.29774072 38.29774072 0 0 0-27.12756632 65.50509403l924.17235612 924.09256919a38.37752768 38.37752768 0 0 0 54.17534577-54.25513271L77.18585469-95.34766191000006a38.29774072 38.29774072 0 0 0-27.12756637-11.24996132"  horiz-adv-x="1024" />

    
    <glyph glyph-name="shanchu" unicode="&#58939;" d="M981.138286 703.122286H730.770286V716.068571C727.917714 816.128 636.416 896 522.825143 896 409.819429 896 318.244571 816.128 315.977143 716.068571v-12.946285H43.008c-24.868571 0-42.934857-16.310857-42.934857-37.083429 0-20.845714 18.066286-37.156571 42.934857-37.156571H149.284571v-577.536c0-142.262857 20.918857-179.346286 143.506286-179.346286h438.564572c123.172571 0 143.506286 35.986286 143.506285 179.346286V628.882286h106.276572c24.868571 0 42.934857 16.310857 42.934857 37.156571 0 20.187429-19.748571 37.083429-42.934857 37.083429zM520.557714 828.489143c68.388571 0 125.44-47.177143 128.292572-109.056l0.512-14.043429h-258.194286l1.097143 14.628572c5.632 60.708571 61.586286 108.470857 128.292571 108.470857zM297.910857-59.977143c-61.074286 0-74.605714 29.257143-74.605714 111.908572V628.882286h577.536v-588.8c0-39.862857-1.097143-53.906286-8.484572-69.12-10.752-21.357714-31.597714-30.939429-65.536-30.939429H297.910857z m113.005714 548.864c-28.233143 0-48.566857-25.307429-48.566857-54.564571v-310.418286c0-29.769143 20.333714-54.491429 48.566857-54.491429s48.566857 25.234286 48.566858 54.491429V434.322286c0 29.842286-23.113143 54.564571-48.566858 54.564571z m202.313143 0c-28.233143 0-48.566857-25.307429-48.566857-54.564571v-310.418286c0-29.769143 23.113143-54.491429 48.566857-54.491429 28.233143 0 48.566857 25.234286 48.566857 54.491429V434.322286a49.371429 49.371429 0 0 1-48.566857 54.564571z"  horiz-adv-x="1024" />

    
    <glyph glyph-name="icon_chakanmima_kai" unicode="&#58917;" d="M643.712 630.976A256.256 256.256 0 0 1 320 384a256 256 0 1 1 510.08 31.872 144 144 0 1 0-186.304 215.04zM576-64c-318.08 0-576 295.744-576 448 0 152.256 257.92 448 576 448s576-296.512 576-448-257.92-448-576-448z"  horiz-adv-x="1152" />

    
    <glyph glyph-name="icon_chakanmima_guan" unicode="&#58885;" d="M187.904 86.4C72.448 182.336 0 303.36 0 384c0 152.256 257.92 448 576 448 101.888 0 197.632-30.464 280.704-76.8l81.28 81.344 90.56-90.496L213.952-68.544 123.52 21.952l64.448 64.448z m518.144 518.144a256 256 0 0 1-350.592-350.592l350.592 350.592zM337.536-8.96l151.936 151.936a256 256 0 0 1 327.552 327.552l180.864 180.864C1093.504 561.152 1152 456.128 1152 384c0-151.488-257.92-448-576-448-85.056 0-165.76 21.12-238.464 55.04z"  horiz-adv-x="1152" />

    
    <glyph glyph-name="suokaisuo" unicode="&#58887;" d="M853.098452-128H170.633112a113.744223 113.744223 0 0 0-113.744223 113.744223V440.721116a113.744223 113.744223 0 0 0 113.744223 113.744223h56.872112V611.337451a284.360558 284.360558 0 0 0 562.977033 56.872112h-118.464609A170.047614 170.047614 0 0 1 511.865782 781.953786a170.616335 170.616335 0 0 1-170.616335-170.616335v-56.872112h511.849005a113.744223 113.744223 0 0 0 113.744223-113.744223v-454.976893a113.744223 113.744223 0 0 0-113.744223-113.744223z m0 568.721116H170.633112v-454.976893h682.46534V440.721116zM511.865782 383.849005a113.744223 113.744223 0 1 0 0.056872-227.431575A113.744223 113.744223 0 0 0 511.865782 383.849005z m0-170.616335a56.872112 56.872112 0 1 1 0 113.744223 56.872112 56.872112 0 0 1 0-113.744223z m56.872111-170.616335H454.99367v113.744223h113.744223v-113.744223z"  horiz-adv-x="1024" />

    
    <glyph glyph-name="suoshangsuo" unicode="&#58889;" d="M853.333333-128H170.666667a113.777778 113.777778 0 0 0-113.777778 113.777778V440.888889a113.777778 113.777778 0 0 0 113.777778 113.777778h56.888889V611.555556a284.444444 284.444444 0 0 0 568.888888 0v-56.888889h56.888889a113.777778 113.777778 0 0 0 113.777778-113.777778v-455.111111a113.777778 113.777778 0 0 0-113.777778-113.777778zM682.666667 611.555556a170.666667 170.666667 0 1 1-341.333334 0v-56.888889h341.333334V611.555556z m170.666666-170.666667H170.666667v-455.111111h682.666666V440.888889zM512 384a113.777778 113.777778 0 1 0 0.056889-227.498667A113.777778 113.777778 0 0 0 512 384z m0-170.666667a56.888889 56.888889 0 1 1 0 113.777778 56.888889 56.888889 0 0 1 0-113.777778z m56.888889-170.666666H455.111111v113.777777h113.777778v-113.777777z"  horiz-adv-x="1024" />

    
    <glyph glyph-name="gengduo" unicode="&#58993;" d="M597.497488 895.968769A40.958751 40.958751 0 0 0 639.992192 857.057956v-158.203175a40.958751 40.958751 0 0 0-42.494704-38.910813H426.494704A40.958751 40.958751 0 0 0 384 698.854781V857.057956A40.958751 40.958751 0 0 0 425.98272 895.968769z m0-393.715992a40.958751 40.958751 0 0 0 42.494704-38.910813v-158.203175a40.958751 40.958751 0 0 0-42.494704-38.910813H426.494704a40.958751 40.958751 0 0 0-42.494704 38.398829v158.715159a40.958751 40.958751 0 0 0 41.98272 38.910813z m0-393.715991a40.958751 40.958751 0 0 0 42.494704-38.910814v-158.203174a40.958751 40.958751 0 0 0-42.494704-38.910814H426.494704a40.958751 40.958751 0 0 0-42.494704 38.398829v158.203175a40.958751 40.958751 0 0 0 41.98272 38.910813z"  horiz-adv-x="1024" />

    
    <glyph glyph-name="weibiaoti--" unicode="&#58919;" d="M993.28 302.08c-17.066667-17.066667-44.373333-30.72-71.68-30.72H102.4c-58.026667 0-102.4 44.373333-102.4 102.4s44.373333 102.4 102.4 102.4h819.2c58.026667 0 102.4-44.373333 102.4-102.4 0-27.306667-10.24-54.613333-30.72-71.68z"  horiz-adv-x="1024" />

    
    <glyph glyph-name="shezhi-shisebeifen" unicode="&#58894;" d="M976.940617 317.732571l-29.915428 16.530286c2.340571 15.725714 4.169143 32.402286 4.169142 49.883429 0 17.554286-1.828571 34.669714-4.169142 50.176l29.988571 16.530285c44.617143 24.502857 60.416 79.652571 35.108571 122.88l-72.045714 123.465143c-25.307429 43.373714-82.651429 59.026286-127.780571 34.596572l-29.330286-15.872a439.442286 439.442286 0 0 1-104.813714 59.245714v30.354286C678.225189 855.478857 636.02176 896 584.163474 896H440.218331C388.286903 896 346.156617 855.478857 346.156617 805.522286v-30.500572a439.442286 439.442286 0 0 1-104.813714-59.245714l-29.330286 15.872c-45.202286 24.283429-102.4 8.777143-127.780571-34.523429L12.186331 573.44a88.868571 88.868571 0 0 1 35.254858-122.88l29.915428-16.457143A337.700571 337.700571 0 0 1 73.187474 384c0-17.481143 1.828571-34.157714 4.169143-49.883429l-29.988571-16.530285a88.868571 88.868571 0 0 1-35.108572-122.88l72.045715-123.538286c25.307429-43.373714 82.651429-58.953143 127.780571-34.523429l29.330286 15.872c32.036571-24.429714 67.072-44.324571 104.813714-59.245714v-30.793143c0-49.956571 42.130286-90.477714 93.988571-90.477714h143.945143c51.931429 0 93.988571 40.521143 93.988572 90.477714v30.939429a439.442286 439.442286 0 0 1 104.813714 59.245714l29.330286-15.945143c14.409143-7.68 30.208-11.410286 45.787428-11.410285 32.841143 0 64.804571 16.676571 81.993143 46.08l72.118857 123.611428c25.234286 42.934857 9.435429 98.011429-35.254857 122.733714z m-462.848-174.665142c-138.093714 0-250.368 108.032-250.368 240.932571s112.274286 240.932571 250.368 240.932571c66.633143 0 129.536-25.088 176.786286-70.729142A235.300571 235.300571 0 0 0 764.387474 384c-0.146286-132.900571-112.420571-240.932571-250.294857-240.932571z"  horiz-adv-x="1024" />

    
    <glyph glyph-name="shuaxin" unicode="&#58941;" d="M1006.18514 276.710875c0-2.236854-0.319551-3.834608-0.639102-4.633484-28.440006-119.03261-87.876424-215.377126-178.469028-289.193322-90.592604-73.816196-196.523639-110.884069-318.272429-110.884069-64.868778 0-127.500702 12.142924-188.055547 36.748323-60.554845 24.445623-114.718677 59.116867-162.171946 104.493056l-85.95912-85.95912c-8.468092-8.468092-18.533937-12.62225-29.877984-12.62225-11.344047 0-21.569668 4.154158-29.877984 12.62225-8.468092 8.468092-12.62225 18.533937-12.62225 29.877984V255.460758c0 11.503823 4.154158 21.569668 12.62225 29.877984 8.468092 8.468092 18.374161 12.62225 29.877984 12.62225h298.14074c11.503823 0 21.569668-4.154158 29.877984-12.62225s12.62225-18.533937 12.62225-29.877984c0-11.344047-4.154158-21.569668-12.62225-29.877984l-91.07193-91.07193c31.475737-29.238883 67.265408-51.926978 107.209237-67.904509s81.485411-23.966297 124.464971-23.966298c59.596193 0 114.878452 14.379778 166.485879 43.139336 51.447652 28.919332 92.669683 68.703386 123.666095 119.192385 4.793259 7.50944 16.616633 33.552816 35.310345 77.810579 3.515057 10.22562 10.22562 15.178655 20.13169 15.178655h127.820252c5.751911 0 10.704946-2.077079 15.01888-6.231237 4.154158-4.154158 6.391013-9.266968 6.391013-15.01888z m16.616632 532.690904v-298.14074c0-11.503823-4.154158-21.569668-12.622249-29.877984s-18.533937-12.62225-29.877985-12.62225H682.001024c-11.503823 0-21.569668 4.154158-29.877985 12.62225s-12.62225 18.374161-12.62225 29.877984c0 11.503823 4.154158 21.569668 12.62225 29.877984l91.870807 91.870807c-65.82743 60.71462-143.318458 91.07193-232.313309 91.07193-59.596193 0-114.878452-14.379778-166.48588-43.139335-51.447652-28.759557-92.829459-68.703386-123.666094-119.192386-4.793259-7.50944-16.616633-33.552816-35.310345-77.810579-3.515057-10.22562-10.22562-15.178655-20.13169-15.178655h-132.613512c-5.751911 0-10.704946 2.077079-15.01888 6.231237-4.154158 4.154158-6.231237 9.266968-6.231237 15.01888v4.633484c28.919332 118.872835 88.835076 215.377126 179.907006 289.193322 91.07193 73.816196 197.642066 110.884069 319.550632 110.884069 64.868778 0 127.820253-12.302699 189.014199-36.908098s115.677329-59.276642 163.130597-104.173506l86.598221 85.95912c8.468092 8.468092 18.374161 12.62225 29.877984 12.62225 11.503823 0 21.569668-4.154158 29.877985-12.62225 8.308316-8.787642 12.62225-18.693712 12.622249-30.197534z"  horiz-adv-x="1024" />

    
    <glyph glyph-name="guanbi1" unicode="&#58888;" d="M656.412 388.179l300.087 292.172a92.077 92.077 0 0 1 0 132.76 98.221 98.221 0 0 1-136.358 0L520.026 520.995 219.994 813.11a98.221 98.221 0 0 1-136.386 0 92.077 92.077 0 0 1 0-132.76l300.088-292.17L83.58 96.007a92.077 92.077 0 0 1 0-132.76c18.072-17.602 42.62-27.538 68.192-27.455 25.573 0 50.093 9.853 68.193 27.455l300.06 292.172 300.087-292.172c18.045-17.602 42.593-27.538 68.165-27.455 25.573 0 50.121 9.853 68.193 27.455a92.077 92.077 0 0 1 0 132.76L656.41 388.179z"  horiz-adv-x="1051" />

    
    <glyph glyph-name="sousuo1" unicode="&#58951;" d="M109.5677 384.684068c0 221.545889 180.202344 401.748233 401.748232 401.748232s401.748233-180.202344 401.748233-401.748232-180.202344-401.748233-401.748233-401.748233A402.186503 402.186503 0 0 0 109.5677 384.684068z m799.771163-320.59509a508.686308 508.686308 0 0 1 113.219957 320.668135 511.315932 511.315932 0 1 1-511.315933-511.315933 508.686308 508.686308 0 0 1 320.668135 113.219957l97.150027-97.150027a54.710805 54.710805 0 1 1 77.427841 77.427841l-97.150027 97.150027z"  horiz-adv-x="1025" />

    


  </font>
</defs>
</svg>
